<?xml version="1.0" standalone="no"?>
<!DOCTYPE svg PUBLIC "-//W3C//DTD SVG 20010904//EN"
 "http://www.w3.org/TR/2001/REC-SVG-20010904/DTD/svg10.dtd">
<svg version="1.0" xmlns="http://www.w3.org/2000/svg"
 width="904.000000pt" height="904.000000pt" viewBox="0 0 904.000000 904.000000"
 preserveAspectRatio="xMidYMid meet">
<metadata>
Created by potrace 1.11, written by Peter Selinger 2001-2013
</metadata>
<g transform="translate(0.000000,904.000000) scale(0.100000,-0.100000)"
fill="#000000" stroke="none">
<path d="M4850 7926 l0 -1003 141 1 141 1 -6 -45 c-4 -25 -9 -54 -11 -65 -2
-11 -9 -45 -14 -75 -6 -30 -13 -66 -16 -80 -3 -14 -8 -41 -11 -60 -3 -19 -10
-54 -15 -78 -5 -23 -12 -59 -15 -78 -3 -20 -8 -46 -10 -58 -2 -11 -7 -34 -10
-51 -3 -16 -11 -61 -19 -100 -8 -38 -17 -83 -20 -100 -14 -77 -18 -101 -19
-115 -1 -9 -5 -20 -8 -25 -3 -6 -4 -18 -3 -27 2 -10 0 -18 -3 -18 -4 0 -7 -10
-8 -22 0 -13 -4 -36 -7 -53 -3 -16 -8 -43 -11 -60 -3 -16 -10 -55 -16 -85 -6
-30 -13 -71 -16 -90 -3 -19 -8 -42 -11 -50 -3 -8 -7 -22 -8 -30 -12 -89 -17
-115 -20 -120 -3 -4 -7 -22 -9 -41 -13 -88 -17 -105 -31 -159 0 -3 -5 -27 -10
-55 -5 -27 -9 -52 -10 -55 0 -3 -5 -27 -10 -55 -4 -27 -10 -57 -11 -65 -2 -8
-6 -35 -10 -60 -3 -25 -9 -49 -12 -54 -3 -6 -6 -19 -8 -30 -1 -20 -10 -69 -20
-120 -5 -23 -11 -58 -20 -108 -3 -18 -10 -53 -15 -78 -6 -25 -13 -58 -15 -75
-2 -16 -6 -41 -9 -55 -3 -14 -8 -40 -11 -59 -3 -18 -8 -42 -10 -52 -2 -11 -6
-27 -8 -38 -2 -10 -7 -36 -10 -57 -4 -22 -8 -46 -11 -54 -2 -8 -6 -33 -10 -54
-10 -72 -16 -81 -63 -111 -26 -16 -51 -33 -57 -37 -19 -15 -136 -88 -141 -88
-3 0 -10 -5 -17 -11 -11 -9 -32 -23 -92 -61 -11 -7 -33 -22 -50 -33 -16 -11
-37 -24 -47 -30 -61 -36 -174 -110 -176 -117 -2 -4 -7 -8 -12 -8 -8 0 -293
-179 -317 -200 -7 -5 -24 -15 -38 -22 -14 -6 -25 -15 -25 -19 0 -4 -10 -11
-22 -14 -13 -4 -32 -15 -43 -24 -16 -14 -303 -199 -450 -291 -13 -8 -63 -40
-110 -70 -47 -30 -114 -73 -148 -95 -35 -22 -101 -64 -148 -94 -46 -30 -129
-84 -184 -119 -55 -36 -137 -89 -182 -118 -46 -30 -87 -54 -93 -54 -5 0 -10
-4 -10 -10 0 -5 -6 -10 -13 -10 -8 0 -22 -9 -32 -20 -10 -11 -22 -17 -26 -14
-5 3 -9 1 -9 -3 0 -5 -15 -17 -32 -27 -18 -11 -41 -26 -51 -34 -10 -9 -24 -17
-32 -18 -7 -1 -24 -11 -36 -23 -13 -12 -28 -21 -35 -21 -7 0 -14 -3 -16 -7 -4
-9 -65 -53 -73 -53 -3 0 -38 -22 -78 -48 -40 -27 -92 -60 -117 -73 l-45 -25
-793 1 -792 1 0 -1003 0 -1003 1004 0 1004 0 1 517 c0 300 4 519 10 521 8 3
202 125 241 152 40 28 122 80 125 80 7 0 100 64 106 73 3 5 9 8 13 8 3 -1 58
32 122 74 63 41 117 75 120 75 3 0 10 5 17 10 7 6 44 31 82 55 39 25 77 49 85
54 8 6 42 28 75 49 33 21 98 63 145 93 93 61 204 131 308 196 37 24 74 48 82
53 8 6 116 76 240 155 124 79 230 147 235 152 6 5 42 28 80 51 106 65 238 151
258 167 9 8 17 13 17 10 0 -2 29 16 65 40 36 25 67 45 70 45 2 0 30 18 62 39
131 88 324 211 332 211 4 0 16 9 26 20 10 11 20 18 23 16 2 -3 13 4 25 15 11
10 27 19 35 19 11 0 127 -95 172 -140 3 -3 59 -52 125 -110 66 -57 125 -109
131 -115 6 -5 40 -35 74 -65 35 -30 68 -59 74 -65 6 -5 27 -23 46 -39 47 -39
165 -143 212 -187 21 -20 38 -35 38 -32 0 2 19 -13 41 -34 57 -52 55 -50 139
-123 41 -36 77 -67 80 -70 3 -3 36 -32 75 -65 38 -33 79 -69 91 -80 33 -30 67
-60 199 -175 66 -58 125 -109 131 -115 6 -5 36 -31 65 -57 30 -25 63 -55 75
-65 11 -10 49 -43 84 -73 35 -30 79 -70 98 -88 19 -18 43 -39 54 -46 20 -14
20 -23 20 -610 l0 -596 1004 0 1004 0 0 1003 0 1003 -672 -1 c-738 -1 -679 -5
-749 57 -14 13 -49 43 -77 68 -28 25 -70 62 -94 82 -24 20 -63 55 -86 76 -24
22 -58 51 -76 65 -17 14 -47 41 -67 59 -19 18 -61 56 -94 83 -32 28 -63 55
-69 60 -25 24 -193 171 -210 185 -20 15 -64 54 -123 107 -17 15 -44 39 -60 52
-39 34 -164 143 -183 161 -9 8 -32 28 -51 44 -19 16 -72 64 -119 105 -47 42
-112 99 -144 126 -33 28 -74 64 -92 80 -18 17 -52 47 -76 67 -78 67 -91 78
-152 133 -34 29 -72 63 -86 75 -129 111 -130 111 -124 149 3 20 8 45 11 56 4
11 8 31 9 45 2 25 8 56 21 115 9 42 10 45 17 85 11 66 16 95 23 125 3 17 7 39
9 50 2 11 5 31 8 45 3 14 9 41 12 60 4 19 9 44 11 55 2 11 6 29 7 40 6 32 16
88 21 115 3 14 7 36 10 50 3 14 10 49 16 78 6 29 12 65 14 80 3 23 38 207 51
267 2 11 7 40 10 65 3 24 8 49 11 54 3 5 8 23 9 40 2 17 9 55 15 83 5 29 12
65 14 80 2 16 4 28 5 28 2 0 7 24 14 70 6 39 9 55 21 108 14 61 30 160 27 170
-1 4 1 7 5 7 5 0 9 16 11 37 1 20 13 93 27 162 28 145 32 165 40 206 3 17 10
53 15 80 6 28 12 64 14 82 3 18 7 40 10 50 3 10 8 32 10 48 3 17 8 41 11 55 7
35 14 79 21 120 3 19 7 41 10 49 2 8 7 30 10 50 3 20 7 41 7 46 1 6 7 12 14
15 7 3 156 5 333 5 l320 -1 0 1003 0 1003 -1005 0 -1005 0 0 -1004z"/>
</g>
</svg>
